<mxfile host="app.diagrams.net" agent="Mozilla/5.0 (Windows NT 10.0; Win64; x64) AppleWebKit/537.36 (KHTML, like Gecko) Chrome/130.0.0.0 Safari/537.36" version="24.7.16">
  <diagram name="PÃ¡gina-1" id="zq6Nl4n1cpswT_TfRZra">
    <mxGraphModel dx="1434" dy="1949" grid="1" gridSize="10" guides="1" tooltips="1" connect="1" arrows="1" fold="1" page="1" pageScale="1" pageWidth="827" pageHeight="1169" math="0" shadow="0">
      <root>
        <mxCell id="0" />
        <mxCell id="1" parent="0" />
        <mxCell id="pOk9ECaGGmiFexvpcxQN-8" value="" style="ellipse;whiteSpace=wrap;html=1;aspect=fixed;" parent="1" vertex="1">
          <mxGeometry x="140" y="-50" width="620" height="620" as="geometry" />
        </mxCell>
        <mxCell id="pOk9ECaGGmiFexvpcxQN-7" value="" style="ellipse;whiteSpace=wrap;html=1;aspect=fixed;" parent="1" vertex="1">
          <mxGeometry x="215" y="25" width="470" height="470" as="geometry" />
        </mxCell>
        <mxCell id="pOk9ECaGGmiFexvpcxQN-6" value="" style="ellipse;whiteSpace=wrap;html=1;aspect=fixed;" parent="1" vertex="1">
          <mxGeometry x="294" y="110" width="300" height="300" as="geometry" />
        </mxCell>
        <mxCell id="pOk9ECaGGmiFexvpcxQN-13" style="edgeStyle=orthogonalEdgeStyle;rounded=0;orthogonalLoop=1;jettySize=auto;html=1;" parent="1" source="pOk9ECaGGmiFexvpcxQN-1" target="pOk9ECaGGmiFexvpcxQN-11" edge="1">
          <mxGeometry relative="1" as="geometry">
            <Array as="points">
              <mxPoint x="370" y="280" />
            </Array>
          </mxGeometry>
        </mxCell>
        <mxCell id="pOk9ECaGGmiFexvpcxQN-1" value="Cliente" style="shape=umlActor;verticalLabelPosition=bottom;verticalAlign=top;html=1;outlineConnect=0;" parent="1" vertex="1">
          <mxGeometry x="500" y="250" width="30" height="60" as="geometry" />
        </mxCell>
        <mxCell id="pOk9ECaGGmiFexvpcxQN-27" style="edgeStyle=orthogonalEdgeStyle;rounded=0;orthogonalLoop=1;jettySize=auto;html=1;" parent="1" source="pOk9ECaGGmiFexvpcxQN-10" target="pOk9ECaGGmiFexvpcxQN-32" edge="1">
          <mxGeometry relative="1" as="geometry">
            <mxPoint x="300" y="150" as="targetPoint" />
          </mxGeometry>
        </mxCell>
        <mxCell id="pOk9ECaGGmiFexvpcxQN-28" style="edgeStyle=orthogonalEdgeStyle;rounded=0;orthogonalLoop=1;jettySize=auto;html=1;entryX=0.5;entryY=1;entryDx=0;entryDy=0;" parent="1" source="pOk9ECaGGmiFexvpcxQN-10" target="pOk9ECaGGmiFexvpcxQN-30" edge="1">
          <mxGeometry relative="1" as="geometry">
            <mxPoint x="454" y="110" as="targetPoint" />
          </mxGeometry>
        </mxCell>
        <mxCell id="pOk9ECaGGmiFexvpcxQN-35" style="edgeStyle=orthogonalEdgeStyle;rounded=0;orthogonalLoop=1;jettySize=auto;html=1;" parent="1" source="pOk9ECaGGmiFexvpcxQN-10" target="pOk9ECaGGmiFexvpcxQN-31" edge="1">
          <mxGeometry relative="1" as="geometry" />
        </mxCell>
        <mxCell id="pOk9ECaGGmiFexvpcxQN-10" value="App Movil" style="text;html=1;align=center;verticalAlign=middle;whiteSpace=wrap;rounded=0;" parent="1" vertex="1">
          <mxGeometry x="420" y="160" width="60" height="30" as="geometry" />
        </mxCell>
        <mxCell id="pOk9ECaGGmiFexvpcxQN-21" style="edgeStyle=orthogonalEdgeStyle;rounded=0;orthogonalLoop=1;jettySize=auto;html=1;" parent="1" source="pOk9ECaGGmiFexvpcxQN-11" edge="1">
          <mxGeometry relative="1" as="geometry">
            <mxPoint x="430" y="180" as="targetPoint" />
          </mxGeometry>
        </mxCell>
        <mxCell id="pOk9ECaGGmiFexvpcxQN-11" value="Dispositivo movil" style="text;html=1;align=center;verticalAlign=middle;whiteSpace=wrap;rounded=0;" parent="1" vertex="1">
          <mxGeometry x="330" y="200" width="60" height="40" as="geometry" />
        </mxCell>
        <mxCell id="pOk9ECaGGmiFexvpcxQN-30" value="Usuarios Adicionales" style="text;html=1;align=center;verticalAlign=middle;whiteSpace=wrap;rounded=0;" parent="1" vertex="1">
          <mxGeometry x="430" y="-30" width="80" height="40" as="geometry" />
        </mxCell>
        <mxCell id="pOk9ECaGGmiFexvpcxQN-31" value="Reguladores de transporte" style="text;html=1;align=center;verticalAlign=middle;whiteSpace=wrap;rounded=0;" parent="1" vertex="1">
          <mxGeometry x="660" y="130" width="80" height="40" as="geometry" />
        </mxCell>
        <mxCell id="pOk9ECaGGmiFexvpcxQN-32" value="GoogleMaps Api" style="text;html=1;align=center;verticalAlign=middle;whiteSpace=wrap;rounded=0;" parent="1" vertex="1">
          <mxGeometry x="230" y="30" width="80" height="40" as="geometry" />
        </mxCell>
      </root>
    </mxGraphModel>
  </diagram>
</mxfile>
